<?xml version="1.0" encoding="UTF-8" standalone="no"?>
<svg
   fill="none"
   viewBox="0 0 24 24"
   stroke-width="1.5"
   stroke="currentColor"
   class="size-6"
   version="1.1"
   id="svg1"
   sodipodi:docname="avatar.svg"
   inkscape:version="1.4 (86a8ad7, 2024-10-11)"
   xmlns:inkscape="http://www.inkscape.org/namespaces/inkscape"
   xmlns:sodipodi="http://sodipodi.sourceforge.net/DTD/sodipodi-0.dtd"
   xmlns="http://www.w3.org/2000/svg"
   xmlns:svg="http://www.w3.org/2000/svg">
  <defs
     id="defs1" />
  <sodipodi:namedview
     id="namedview1"
     pagecolor="#ffffff"
     bordercolor="#000000"
     borderopacity="0.25"
     inkscape:showpageshadow="2"
     inkscape:pageopacity="0.0"
     inkscape:pagecheckerboard="0"
     inkscape:deskcolor="#d1d1d1"
     inkscape:zoom="16.8125"
     inkscape:cx="6.126394"
     inkscape:cy="3.1821561"
     inkscape:window-width="1920"
     inkscape:window-height="1009"
     inkscape:window-x="-8"
     inkscape:window-y="-8"
     inkscape:window-maximized="1"
     inkscape:current-layer="svg1" />
  <path
     stroke-linecap="round"
     stroke-linejoin="round"
     d="M 18.553538,19.28009 C 25.327821,13.326097 21.064813,2.2569506 12,2.2569506 c -9.0648127,0 -13.3278217,11.0691464 -6.5535385,17.0231394 m 13.1070765,0 c -1.80339,1.589473 -4.13643,2.466348 -6.552991,2.462948 -2.4169372,0.0037 -4.7504131,-0.873226 -6.5540855,-2.462948"
     id="path1"
     sodipodi:nodetypes="cscccc"
     style="opacity:1;fill:#475569;stroke-width:0;stroke-dasharray:none;fill-opacity:1" />
  <path
     stroke-linecap="round"
     stroke-linejoin="round"
     d="m 17.982,16.852115 c -1.41658,-1.87555 -3.6316,-2.977135 -5.982,-2.975 -2.3504001,-0.0021 -4.5654192,1.09945 -5.9820002,2.975 m 11.9630002,0 c -3.396844,3.029918 -8.5664052,3.029697 -11.9630002,0 M 15,7.8771144 c 0,3.9999986 -6.0000002,3.9999986 -6.0000002,0 0,-3.999998 6.0000002,-3.999998 6.0000002,0 z"
     id="path2"
     sodipodi:nodetypes="cccccsss"
     style="display:inline;fill:none;stroke:#cbd5e1;stroke-opacity:1" />
</svg>
