<?xml version="1.0" encoding="UTF-8" standalone="no"?>
<svg
   fill="none"
   viewBox="0 0 24 24"
   stroke-width="1.5"
   stroke="currentColor"
   class="size-6"
   version="1.1"
   id="svg1"
   sodipodi:docname="icon.svg"
   inkscape:version="1.4 (86a8ad7, 2024-10-11)"
   xmlns:inkscape="http://www.inkscape.org/namespaces/inkscape"
   xmlns:sodipodi="http://sodipodi.sourceforge.net/DTD/sodipodi-0.dtd"
   xmlns="http://www.w3.org/2000/svg"
   xmlns:svg="http://www.w3.org/2000/svg">
  <defs
     id="defs1" />
  <sodipodi:namedview
     id="namedview1"
     pagecolor="#ffffff"
     bordercolor="#000000"
     borderopacity="0.25"
     inkscape:showpageshadow="2"
     inkscape:pageopacity="0.0"
     inkscape:pagecheckerboard="0"
     inkscape:deskcolor="#d1d1d1"
     inkscape:zoom="16"
     inkscape:cx="1.34375"
     inkscape:cy="19.03125"
     inkscape:window-width="1920"
     inkscape:window-height="1009"
     inkscape:window-x="-8"
     inkscape:window-y="-8"
     inkscape:window-maximized="1"
     inkscape:current-layer="svg1" />
  <g
     id="g12">
    <path
       stroke-linecap="round"
       stroke-linejoin="round"
       d="m 9.75,14.894 v -4.286 c 0,-1.135 0.845,-2.098 1.976,-2.192 4.148639,-0.3443986 8.518575,0.017627 8.56267,0.039757 L 20.25,6.637 C 20.215543,5.0163663 19.098,3.611 17.49,3.402 15.420825,3.1337917 13.336486,2.9995122 11.25,3 9.135,3 7.052,3.137 5.01,3.402 3.402,3.611 2.25,5.016 2.25,6.637 v 6.226 c 0,1.621 1.152,3.026 2.76,3.235 0.577,0.075 1.157,0.14 1.74,0.194 V 21 l 3.99875,-3.877656 C 10.05375,16.751344 9.75,15.731 9.75,14.894 Z"
       id="path1"
       sodipodi:nodetypes="ssccscccssccccs"
       style="fill:#0ea5e9;stroke-width:0;stroke-dasharray:none;fill-opacity:1" />
  </g>
  <path
     stroke-linecap="round"
     stroke-linejoin="round"
     d="m 20.614816,8.8095243 c 0.884,0.284 1.5,1.128 1.5,2.0969997 v 4.286 c 0,1.136 -0.847,2.1 -1.98,2.193 -0.34,0.027 -0.68,0.052 -1.02,0.072 v 3.091 l -3,-3 c -1.354,0 -2.694,-0.055 -4.02,-0.163 -0.288668,-0.02333 -0.569469,-0.1057 -0.825,-0.242 m 9.345,-8.3339997 c -0.15452,-0.04974 -0.314227,-0.08161 -0.476,-0.095 -2.678061,-0.222319 -5.369939,-0.222319 -8.048,0 -1.131,0.094 -1.976,1.057 -1.976,2.1919997 v 4.286 c 0,0.837 0.46,1.58 1.155,1.951"
     id="path4"
     sodipodi:nodetypes="csscccccccccssc"
     style="display:inline;fill:#0e89e9;stroke:currentColor;stroke-width:0;stroke-dasharray:none;fill-opacity:1" />
</svg>
